<?xml version="1.0" standalone="no"?>
<!DOCTYPE svg PUBLIC "-//W3C//DTD SVG 20010904//EN"
 "http://www.w3.org/TR/2001/REC-SVG-20010904/DTD/svg10.dtd">
<svg version="1.0" xmlns="http://www.w3.org/2000/svg"
 width="225.000000pt" height="225.000000pt" viewBox="0 0 225.000000 225.000000"
 preserveAspectRatio="xMidYMid meet">

<g transform="translate(0.000000,225.000000) scale(0.100000,-0.100000)"
fill="#000000" stroke="none">
<path d="M1040 1585 l0 -80 115 -115 115 -115 -105 -110 -105 -110 72 -3 72
-3 73 73 73 72 0 81 0 80 -155 155 -155 155 0 -80z"/>
<path d="M937 1392 c-98 -98 -109 -128 -62 -172 l25 -24 30 29 c31 30 38 53
19 72 -13 13 -4 33 16 33 20 0 29 -20 16 -33 -6 -6 -11 -21 -11 -33 0 -12 -11
-36 -25 -52 -14 -17 -23 -37 -20 -44 3 -8 -1 -21 -10 -28 -8 -7 -15 -17 -15
-23 0 -5 9 -2 20 8 11 10 20 23 20 30 0 6 18 29 41 50 38 38 40 43 34 83 -5
34 -3 42 9 42 12 0 16 -11 16 -43 0 -38 -6 -48 -45 -87 -27 -26 -43 -50 -40
-59 3 -8 -2 -22 -11 -33 -23 -25 -9 -36 16 -13 20 18 21 18 43 -3 13 -12 27
-22 31 -22 9 0 206 196 206 205 0 11 -196 205 -206 205 -5 0 -49 -39 -97 -88z
m168 -109 c-6 -41 -16 -57 -66 -108 -32 -32 -61 -56 -65 -52 -4 4 19 33 50 64
56 56 57 59 51 101 -6 38 -4 42 15 42 20 0 21 -4 15 -47z"/>
<path d="M885 1170 c-10 -11 -14 -20 -9 -20 5 0 15 9 22 20 7 11 11 20 9 20
-2 0 -12 -9 -22 -20z"/>
<path d="M90 925 c0 -102 1 -105 23 -105 21 0 22 3 19 70 -2 38 0 70 5 70 5 0
32 -31 61 -70 37 -50 59 -70 75 -70 21 0 22 3 22 105 0 102 -1 105 -22 105
-21 0 -23 -4 -23 -62 l0 -62 -47 62 c-41 54 -52 62 -80 62 l-33 0 0 -105z"/>
<path d="M356 1008 c-11 -15 -16 -45 -16 -85 0 -88 16 -103 110 -103 63 0 70
2 70 20 0 18 -7 20 -65 20 -63 0 -65 1 -65 25 0 24 3 25 60 25 53 0 60 2 60
20 0 18 -7 20 -60 20 -53 0 -60 2 -60 20 0 18 7 20 65 20 58 0 65 2 65 20 0
18 -7 20 -74 20 -66 0 -77 -3 -90 -22z"/>
<path d="M566 1018 c4 -7 20 -29 35 -49 l29 -36 -41 -57 -40 -56 28 0 c19 0
36 10 55 32 l28 33 26 -32 c18 -24 34 -33 55 -33 l30 0 -41 55 -40 55 36 50
36 50 -30 0 c-24 0 -35 -7 -49 -30 -9 -16 -20 -30 -23 -30 -3 0 -14 14 -23 30
-14 23 -25 30 -48 30 -21 0 -28 -4 -23 -12z"/>
<path d="M790 1010 c0 -16 7 -20 35 -20 l35 0 0 -85 c0 -84 0 -85 25 -85 25 0
25 1 25 85 l0 85 55 0 c48 0 55 2 55 20 0 19 -7 20 -115 20 -108 0 -115 -1
-115 -20z"/>
<path d="M1050 925 l0 -105 25 0 c22 0 25 4 25 35 0 23 5 35 14 35 7 0 26 -16
40 -35 20 -26 34 -35 57 -35 l30 0 -27 35 -27 36 22 22 c12 14 21 36 21 55 0
45 -30 62 -112 62 l-68 0 0 -105z m128 41 c5 -23 -14 -36 -50 -36 -25 0 -28 4
-28 31 0 29 2 30 37 27 28 -2 39 -8 41 -22z"/>
<path d="M1331 1004 c-106 -89 26 -237 147 -164 61 37 69 105 18 156 -30 30
-40 34 -84 34 -40 0 -57 -6 -81 -26z m126 -36 c30 -28 29 -62 -3 -87 -35 -27
-59 -26 -89 4 -32 31 -32 58 1 84 34 27 62 27 91 -1z"/>
<path d="M1580 925 c0 -98 1 -105 20 -105 18 0 20 7 20 70 0 39 3 70 8 69 4 0
31 -31 60 -70 34 -44 60 -69 73 -69 18 0 19 8 19 105 0 97 -1 105 -20 105 -16
0 -19 -8 -22 -61 l-3 -61 -45 61 c-39 52 -50 60 -77 61 l-33 0 0 -105z"/>
<path d="M1840 925 l0 -105 25 0 25 0 0 105 0 105 -25 0 -25 0 0 -105z"/>
<path d="M1978 1001 c-28 -25 -33 -36 -33 -75 0 -36 6 -51 28 -73 23 -24 36
-28 81 -28 44 0 59 5 80 25 l27 24 -23 12 c-19 10 -26 10 -40 -3 -38 -34 -108
-6 -108 43 0 47 61 77 103 50 26 -18 57 -12 57 10 0 20 -54 44 -99 44 -31 0
-49 -7 -73 -29z"/>
</g>
</svg>
